<?xml version="1.0" encoding="utf-8"?>
<!-- Generator: Adobe Illustrator 16.0.0, SVG Export Plug-In . SVG Version: 6.00 Build 0)  -->
<!DOCTYPE svg PUBLIC "-//W3C//DTD SVG 1.1//EN" "http://www.w3.org/Graphics/SVG/1.1/DTD/svg11.dtd">
<svg version="1.1" id="Layer_1" xmlns="http://www.w3.org/2000/svg" xmlns:xlink="http://www.w3.org/1999/xlink" x="0px" y="0px"
	 width="999.997px" height="245.227px" viewBox="0 0 999.997 245.227" enable-background="new 0 0 999.997 245.227"
	 xml:space="preserve">
<g>
	<path d="M14.657,116.281v10.023H30.73v13.195H14.657v23.552H0v-59.976h32.375v13.206H14.657z"/>
	<path d="M57.665,115.008h1.412c4.791,0,10.172,0.955,10.172,7.476c0,6.525-5.381,7.48-10.172,7.48h-1.412V115.008z M72.167,138.464
		c8-1.505,12.336-8.66,12.336-16.932c0-12.814-8.451-18.457-19.591-18.457H43.004v59.976h14.661v-23.062h0.143l13.835,23.062h18.241
		L72.167,138.464z"/>
	<path d="M110.698,116.281v10.023h16.524v13.195h-16.524v10.344h17.422v13.208H96.044v-59.976h32.077v13.206H110.698z"/>
	<path d="M145.646,103.075h14.429l11.441,32.061l12.111-32.061h14.585l8.521,59.976h-14.651l-4.115-34.52h-0.152l-13.53,34.52
		h-5.835l-12.934-34.52h-0.152l-4.711,34.52h-14.578L145.646,103.075z"/>
	<path d="M246.885,140.692h-12.184l6.057-19.077h0.153L246.885,140.692z M250.851,152.634l3.667,10.417h15.625l-21.238-59.976h-16
		l-21.68,59.976h15.549l3.889-10.417H250.851z"/>
	<path d="M275.447,103.075h14.658l26.841,36.662h0.146v-36.662h14.657v59.976h-14.657l-26.841-36.747h-0.146v36.747h-14.658V103.075
		z"/>
	<path d="M366.817,163.051h-14.658v-46.77h-12.114v-13.206h38.88v13.206h-12.108V163.051z"/>
	<g>
		<path d="M401.867,149.843h17.572v13.208h-32.226v-59.976h14.654V149.843z"/>
		<path d="M443.356,116.281v10.023h16.527v13.195h-16.527v10.344h17.426v13.208h-32.08v-59.976h32.08v13.206H443.356z"/>
		<path d="M483.284,99.654l20.489,50.355l20.556-50.355l11.445,63.397h-6.426l-7.261-40.567h-0.146l-18.169,43.034l-18.092-43.034
			h-0.156l-7.248,40.567h-6.432L483.284,99.654z"/>
		<path d="M543.438,103.075h29.229v6.207h-22.956v17.817h22.286v6.207h-22.286v23.539h22.956v6.206h-29.229V103.075z"/>
		<path d="M589.974,156.845v-47.563h4.563c6.65,0,12.333,0.952,17.491,5.805c4.867,4.529,7.334,11.137,7.334,17.973
			c0,6.678-2.4,12.971-7.035,17.578c-5.159,5.173-10.907,6.207-17.79,6.207H589.974z M583.688,163.051h10.47
			c8.826,0,15.557-1.193,22.287-7.559c6.206-5.889,9.189-13.593,9.189-22.346c0-8.912-2.917-16.952-9.336-22.83
			c-6.657-6.051-13.54-7.241-21.988-7.241h-10.622V163.051z"/>
		<path d="M640.613,163.051h-6.279v-59.976h6.279V163.051z"/>
		<path d="M683.057,139.83h-19.063l9.648-24.023L683.057,139.83z M685.523,146.03l6.657,17.021h6.949l-25.35-62.837l-26.013,62.837
			h6.883l6.804-17.021H685.523z"/>
	</g>
	<path fill="#004896" d="M902.882,0.523L902.882,0.523c-0.544,0.212-0.981,0.341-1.393,0.395c-0.166-0.103-0.318-0.239-0.49-0.272
		c-0.644-0.112-1.128,0.232-1.387,0.425h-0.006c-0.066-0.033-0.478-0.262-0.478-0.262l-0.591,0.54
		c-0.603,0.58-1.451,1.034-2.261,1.485c-0.782,0.415-1.571,0.849-2.255,1.412l-0.464,0.385l0.073,0.59l0,0c0,0.006,0,0.043,0,0.043
		c0,0.149-0.146,0.375-0.378,0.686c-0.345,0.491-0.822,1.157-0.843,2.099c-0.935,0.677-1.385,1.615-1.73,2.543
		c-0.212,0.551-0.41,1.081-0.735,1.449l-0.153,0.176l-0.065,0.219c-0.14,0.431-0.212,0.875-0.212,1.326
		c0,1.153,0.517,2.308,1.458,3.342c0.358,1.588,1.771,2.002,2.573,2.208c0.464,0.123,0.941,0.245,1.12,0.458l0.352,0.401l0.53-0.029
		c0.491-0.017,1.021,0.156,1.585,0.341c0.862,0.275,2.148,0.667,3.441-0.01c1.062,0.05,1.844-0.48,2.36-0.842
		c0.623-0.431,0.822-0.53,1.193-0.398l0.425,0.146l0.411-0.192c0.537-0.255,1.207-0.388,1.923-0.527
		c1.114-0.222,2.374-0.467,3.441-1.319c0.418-0.146,0.776-0.391,1.015-0.736c0.199-0.302,0.305-0.657,0.364-1.018
		c0.192-0.073,1.121-0.438,1.121-0.438s-0.186-0.779-0.199-0.835v-0.013c0-0.109,0.1-0.219,0.478-0.544
		c0.438-0.371,0.975-0.829,1.2-1.618l0.079-0.281l-0.072-0.282l-0.007-0.086c0-0.192,0.119-0.491,0.245-0.806
		c0.186-0.448,0.404-1.008,0.404-1.628c0-0.318-0.139-0.65-0.285-0.981c0.007-0.146,0.066-0.786,0.066-0.786
		c0-2.924-1.949-5.358-3.885-6.472c-1.035-0.696-1.95-0.146-2.494,0.255c-0.119-0.133-0.424-0.444-0.424-0.444
		s-0.305,0.036-0.318,0.043c-0.126-0.023-0.61-0.106-0.703-0.123C905.461-0.435,903.916,0.129,902.882,0.523z"/>
	<path fill="#004896" d="M980.966,78.207l-0.438,0.636c-0.079,0.12-0.312,0.262-0.537,0.395c-0.557,0.325-1.484,0.866-1.564,2.136
		l-0.033,0.593c0,0,0.345,0.266,0.411,0.312c0.007,0.046,0.04,0.521,0.04,0.521c0,0.646,0,2.145,1.645,2.576
		c0,0,0.053,0.02,0.105,0.033c1.181,1.081,2.852,1.33,4.993,0.65l0.053-0.017l0.1-0.043l0.054-0.027
		c1.445-0.802,1.458-2.036,1.465-2.854c0.007-0.345,0.02-0.64,0.106-0.875l0.198-0.5l-0.271-0.464
		c-0.504-0.868-1.438-1.564-2.666-2.056c-0.265-0.457-0.649-0.806-1.18-0.921c-0.478-0.106-0.929-0.02-1.333,0.199
		c-0.133-0.166-0.735-0.895-0.735-0.895L980.966,78.207z"/>
	<path fill="#004896" d="M779.907,123.316L779.907,123.316l-0.451,0.109l-0.266,0.448l-0.609,0.995
		c-0.479,0.702-1.088,1.604-1.221,2.722v0.053l-0.007,0.093l0.007,0.053c0.086,1.439,0.955,1.963,1.525,2.308
		c-0.007,0-0.007,0-0.007,0s0.325,0.226,0.464,0.332c0.564,1.173,1.73,1.3,2.262,1.339c0.318,0.027,0.609,0.054,0.769,0.146
		l0.405,0.252l1.193-0.332c1.134-0.305,2.42-0.649,3.494-1.578l0.252-0.212l0.1-0.371c0,0.013,0.271-0.942,0.271-0.942
		c0.358-1.067,0.862-2.565-0.266-3.955l-0.391-0.49c0,0-0.378,0.063-0.418,0.066c-0.039-0.047-0.079-0.106-0.079-0.106
		c-0.292-0.404-0.829-1.153-1.896-1.107C783.328,122.885,781.458,122.951,779.907,123.316z"/>
	<path fill="#004896" d="M992.703,135.142l-0.226,0.484l0,0c-0.06,0.133-0.192,0.199-0.882,0.292
		c-0.497,0.073-1.028,0.159-1.532,0.438l0.106-0.053c-0.955,0.265-2.089,0.968-2.089,2.812l0.146,1.459l0,0l0.179,1.498l0.371,0.324
		l0.729,0.405c0.04,0.02,0.172,0.079,0.252,0.119c0.014,0.126,0.066,0.663,0.066,0.663l0.775,0.172
		c0.325,0.073,0.684,0.279,1.055,0.491c0.014,0.013,0.836,0.464,0.836,0.464s0.212,0,0.225,0l0.318,0.027
		c1.585,0.158,3.236,0.318,4.848-0.756l0.039-0.027l0.073-0.053l0.026-0.026c1.658-1.565,1.977-3.104,1.977-5.226v-0.543
		c0,0-0.339-0.266-0.398-0.306c0.02-0.073,0.106-0.517,0.106-0.517l-0.418-0.425c-1.067-1.062-2.413-1.233-3.601-1.393
		c-0.663-0.093-1.286-0.173-1.777-0.385l-0.98-0.424L992.703,135.142z"/>
	<path fill="#004896" d="M905.727,203.513L905.727,203.513c-0.219,0.079-0.551,0.198-0.67,0.172l-0.464-0.079l-0.378,0.285
		c-0.696,0.53-1.751,0.676-2.487,0.643c-1.976-0.729-3.235,0.53-4.07,1.38c-0.883,0.914-1.234,1.146-1.863,0.98l-0.379-0.112
		l-0.357,0.159c-0.392,0.18-0.896,0.033-1.539-0.152c-0.557-0.146-1.193-0.318-1.896-0.318h-0.053h-0.105l-0.054,0.014
		c-1.538,0.305-1.903,1.484-2.148,2.254c-0.119,0.398-0.226,0.742-0.45,0.929c0,0.013-1.273,1.101-1.273,1.101
		s1.393,0.676,1.472,0.703c-0.026,0.066-0.065,0.133-0.065,0.133c-0.16,0.331-0.372,0.821-0.438,1.379
		c-0.312,0.039-0.663,0.133-0.994,0.464l-0.318,0.318c0,0,0,0.649,0,0.689c0,1.353,0.703,1.764,1.3,1.87l0.597,0.093
		c0,0,0.252-0.278,0.305-0.345c0.093,0.026,0.278,0.093,0.484,0.146c0.06,0.093,0.112,0.186,0.112,0.278l-0.079,0.624
		c0,0.053-0.106,1.472-0.106,1.472l-0.033,0.424l0.696,0.227l-0.126-0.054c0.782,0.491,1.571,0.299,2.076,0.173
		c0.105,0.172,0.212,0.397,0.212,0.855l-0.146,1.239l-0.198,0.955l0.835,0.265l1.008,0.332c0.266,0.066,0.558,0.133,0.61,0.199
		l0.464,0.689l0.796-0.252c0.093-0.026,0.126-0.04,0.537,0.278c0.391,0.299,1.187,0.889,2.32,0.637
		c1.102,0.385,2.262,0.411,3.455,0.385l0.875-0.007l0.08-0.007l0.166-0.046c1.021-0.338,1.69-1.24,2.009-1.758
		c1.949-0.517,3.382-1.524,4.164-2.917c0.663-0.239,1.074-0.743,1.272-1.001c0,0,0.146-0.193,0.193-0.246c0.072,0,0.404,0,0.404,0
		l0.324-0.345c0.339-0.358,0.949-0.464,1.651-0.604c0.901-0.165,1.823-0.411,2.6-1.067c0.782,0.066,1.393-0.318,1.604-0.464
		c0,0,0.205-0.12,0.252-0.146c0.033,0,0.238,0,0.238,0l0.266-0.173c0.318-0.212,0.617-0.173,1.459,0.066
		c0.026,0,1.552,0.364,1.552,0.364l0.384-0.385c0.916-0.683,0.916-1.757,0.916-2.273v-0.67l-0.12-0.219
		c-0.318-0.65-1.193-1.42-2.182-1.632c-0.544-0.212-1.041-0.226-1.479-0.04c-0.696,0.318-0.941,0.969-1.094,1.433
		c-0.312,0.12-0.67,0.212-1.055,0.292c-0.226-0.352-0.53-0.59-0.809-0.763c0.013,0,0.677,0.126,0.677,0.126s0.065-0.729,0.065-0.809
		c0.199-0.358,0.318-0.689,0.318-1.021l-0.06-0.431c-0.219-0.789-0.901-1.114-1.405-1.347l-0.425-0.238l-0.026-0.119
		c0,0-0.021-0.014-0.033-0.033c0.133-0.232,0.318-0.577,0.318-1.068l-0.126-0.676l-0.192-0.53c0,0-0.425-0.12-0.491-0.146
		c-0.025-0.021-0.277-0.346-0.277-0.346c-0.279-0.385-0.916-1.272-2.036-1.193c-0.696-0.278-1.399-0.424-2.022-0.544
		c-0.663-0.119-1.286-0.252-1.816-0.49C907.364,202.962,906.383,203.294,905.727,203.513z M915.175,208.724L915.175,208.724
		L915.175,208.724z"/>
	<path fill="#004896" d="M965.039,132.748c-0.013-0.026-1.028-2.261-1.028-2.261c-0.563-1.307-1.14-2.672-2.042-3.945
		c-1.319-1.555-2.726-3.143-4.469-4.406c-0.537-0.683-1.2-1.141-1.79-1.499c-0.551-0.335-0.988-0.604-1.201-0.975l-0.105-0.195
		l-0.186-0.14c-1.552-1.177-3.17-2.225-4.734-3.232l-1.592-1.034l-0.352,0.01c-0.444,0.023-0.789-0.226-1.359-0.666
		c-0.53-0.398-1.12-0.77-1.83-0.929c-0.756-0.858-1.744-1.416-2.785-1.933c0,0-0.186-0.096-0.238-0.123
		c-0.729-0.653-1.538-0.729-2.029-0.762c-0.543-0.04-0.656-0.073-0.802-0.239l-0.007,0.007c-0.504-0.759-1.426-1.067-2.075-1.253
		c0.013,0.006-0.458-0.152-0.458-0.152s0.027,0.033,0.033,0.037c-0.285-0.183-0.809-0.455-1.811-0.975
		c-1.12-0.624-2.28-1.27-3.566-1.648c-0.677-0.318-1.048-0.736-1.24-1.425c-0.007-0.159-0.14-2.387-0.14-2.387
		c0-0.02-0.146-2.652-0.146-2.652c0-1.919,0.385-3.282,1.267-4.565l0.112-0.155l0.047-0.186c0.312-1.167,0.882-2.308,1.432-3.415
		c0.007-0.017,0.77-1.622,0.908-1.923c1.021-1.014,1.685-2.324,1.817-3.567c0.915-1.366,1.843-2.513,2.731-3.614
		c0-0.007,1.433-1.81,1.433-1.81c2.46-3.441,4.522-7.314,5.835-10.928l0.199-0.557c0,0-0.252-0.338-0.325-0.44
		c0.179-1.313,0.266-2.417,0.266-3.508c0,0-0.073-1.78-0.073-1.92c0.066-0.64,0.332-1.233,0.61-1.85
		c0.265-0.594,0.544-1.297,0.683-2.076c0.875-1.121,1.784-2.48,2.076-4.078l-0.08,0.188l0.252-0.825c0,0-0.026-0.152-0.06-0.292
		c0.06-0.03,0.126-0.063,0.126-0.063l0.026-0.68c-0.079-3.322-1.618-6.14-3.979-7.49c-1.114-1.76-2.241-3.478-3.687-5.069
		c0-0.139,0-0.557,0-0.557l-0.49-0.365l-1.473-1.101c-0.729-0.61-1.658-1.366-2.897-1.737c-1.771-1.804-3.256-1.983-4.29-1.75
		c-1.797-1.555-4.138-1.24-5.518-0.849c-1.061-0.444-2.115-0.173-2.758,0.013c-0.962,0.272-1.233,0.305-1.604-0.04
		c-1.896-1.423-3.966-1.413-5.796-1.399c-0.994,0.007-1.936,0.01-2.758-0.189l-0.332-0.083l-0.318,0.126
		c-0.238,0.086-0.597,0-1.034-0.116c-0.57-0.149-1.499-0.368-2.434,0.05c-5.378,0.434-9.953,0.312-15.257,0.162
		c0,0-0.173-0.007-0.299-0.01c-0.14-0.063-0.563-0.282-0.563-0.282l-2.6,0.425c-1.718,0.242-3.263,0.507-4.741,1.081
		c-1.213-0.143-2.168,0.328-2.857,0.692c-0.491,0.239-0.842,0.385-1.207,0.438c-1.326-1.744-3.063-2.731-4.482-3.514
		c-1.061-0.587-2.063-1.138-2.944-1.91l-0.285-0.245l-0.378-0.02c-1.146-0.06-2.36-0.855-3.607-1.744l-0.172-0.116l-0.199-0.05
		c-0.736-0.183-1.393-0.504-2.096-0.846c-0.901-0.431-1.797-0.832-2.864-1.041c-0.829-0.6-1.624-0.885-2.374-1.101
		c-0.53-0.156-0.954-0.288-1.385-0.523c-0.756-0.822-1.771-1.117-2.467-1.297c-0.484-0.132-0.941-0.255-1.26-0.467
		c-0.007,0-0.232-0.152-0.232-0.152l-0.278-0.023c-0.684-0.066-1.286-0.378-1.996-0.727c-0.729-0.381-1.559-0.792-2.566-0.971
		l-0.179-0.033l-0.192,0.033c-1.319,0.219-2.586-0.676-4.098-1.876l-0.04-0.023l-0.066-0.05l-0.04-0.02
		c-1.346-0.743-2.758-1.177-4.124-1.595c-1.757-0.541-3.422-1.051-4.781-2.168l-0.271-0.222l-0.345-0.026
		c-0.815-0.06-1.472-0.478-2.222-0.965c-0.815-0.524-1.631-1.011-2.712-1.22c0.014,0-0.954-0.208-0.954-0.208
		c-0.04-0.004-0.166-0.021-0.279-0.033c0-0.017-0.053-0.345-0.053-0.345l-0.49-0.206l-1.287-0.58c0-0.003-1.18-0.534-1.18-0.534
		c-0.054-0.027-0.192-0.066-0.192-0.066c-3.76-0.58-8.335-1.273-11.61,1.731l-0.033,0.029c-0.908,0.912-0.736,1.986-0.617,2.696
		c0.053,0.365,0.106,0.676,0.026,0.852l-0.252,0.497l0.252,0.491c1.538,2.99,4.669,6.763,8.435,7.549
		c0.862,0.239,1.725,0.315,2.56,0.385c-0.013,0,1.538,0.166,1.538,0.166V25.15c0.729,0.212,1.479,0.155,2.082,0.089
		c0.518-0.066,1.008-0.122,1.2,0.027l0.378,0.292l0.471-0.079c0.604-0.1,1.333-0.033,2.115,0.033
		c0.75,0.066,1.433,0.116,2.122,0.066c1.592,0.75,3.223,0.981,5.106,0.7c0.742,0.309,1.484,0.388,2.175,0.404
		c1.048,0.017,1.571,0.063,2.095,0.723l0.577,0.733c0,0,0.464-0.262,0.484-0.272c0.252,0.199,0.517,0.332,0.802,0.404
		c0.65,0.743,1.386,1.194,2.168,1.595c-0.006-0.006,0.982,0.518,0.982,0.518l0.252,0.133l0.53-0.272
		c0.212-0.116,0.305-0.109,0.928,0.203c0.04,0.017,1.114,0.467,1.114,0.467l0.133,0.05l0.186-0.046
		c1.432-0.113,2.838,0.451,4.323,1.054l1.048,0.411l0.357-0.109c0.518-0.156,1.002,0.123,1.804,0.63
		c0.743,0.454,1.499,0.846,2.394,0.962c0.729,0.414,1.181,1.021,1.333,1.69c-0.59,0.779-1.604,1.336-2.572,1.373
		c-2.202-0.885-4.536-1.33-6.598-1.233c-0.657-0.275-1.359-0.448-1.97-0.581c0.026,0-1.326-0.361-1.326-0.361
		c-1.048-0.391-2.46-0.792-3.806-0.481c-0.558-0.285-1.154-0.378-1.698-0.395c0.047,0-0.762-0.089-0.762-0.089
		c-0.073,0-0.325,0.003-0.325,0.003h-0.079l-0.08,0.023c-0.358,0.126-1.021-0.053-1.658-0.229c-0.914-0.242-1.869-0.448-2.877-0.302
		c-0.981-0.471-1.93-0.424-2.825-0.305c-0.995,0.133-1.333,0.123-1.671-0.212l-0.345-0.345l-0.484,0.026
		c-1.85,0.096-3.401,0-5.032-0.1c-0.027,0-3.355-0.159-3.355-0.159l-0.172,0.186c-0.684-0.06-1.301,0.126-1.765,0.332l0,0
		c-0.007,0-0.676,0.245-0.676,0.245c-1.048,0.245-2.44,0.65-3.607,1.326c-1.286-0.192-2.208,0.573-2.771,1.048
		c-0.584,0.487-0.829,0.656-1.101,0.616l-0.518-0.066l-3.209,3.027c-1.87,1.721-3.819,3.504-5.57,5.746l-0.152,0.182l-0.06,0.226
		c-0.179,0.746-0.345,0.905-0.411,0.941l-0.066,0.04l-0.119,0.096l-0.053,0.06c-1.459,1.505-2.209,3.196-2.944,4.837
		c0.007-0.014-1.041,2.161-1.041,2.161c-0.677,1.605-2.182,2.652-3.628,3.664c-0.013,0.006-1.22,0.889-1.432,1.047
		c-0.716,0.265-1.253,0.716-1.685,1.313c-1.021,0.199-1.697,0.829-2.308,1.485c-0.357,0.397-0.669,0.736-1.034,0.908l-0.345,0.149
		l-0.179,0.332c-2.075,3.836-4.556,6.581-8.149,10.022c-0.159,0.089-0.332,0.202-0.563,0.345c-0.67,0.395-1.413,0.921-1.751,1.837
		c-1.015,0.62-1.902,1.396-2.725,2.152c-1.24,1.157-2.421,2.251-4.019,2.52c-0.007,0.003-1.134,0.189-1.134,0.189
		c-1.233,0.255-1.691,0.278-2.016-0.113l-0.206-0.242l-1.757-0.58c-1.081-0.385-2.44-0.869-4.064-0.687
		c-0.365-0.199-0.77-0.314-1.207-0.288c0,0-0.027,0-0.04,0c-0.079-0.086-0.411-0.514-0.411-0.514s-0.637,0.235-0.703,0.255
		c-0.026-0.013-0.364-0.156-0.364-0.156c-0.392-0.182-0.908-0.368-1.485-0.322c-0.955-0.566-2.035-0.729-2.845-0.842
		c-0.763-0.1-1.479-0.199-2.003-0.514l-0.072-0.043l-0.152-0.06l-1.207-0.295c-0.981-0.255-2.201-0.57-3.468-0.467
		c-0.504-0.298-1.034-0.378-1.625-0.252c-0.597-0.278-1.193-0.262-1.664-0.186c0,0-0.345,0.04-0.392,0.046
		c-0.039-0.046-0.338-0.348-0.338-0.348l-0.523,0.056c-0.246,0.033-0.77-0.093-1.141-0.182c-0.027-0.01-1.32-0.262-1.32-0.262
		l-0.191,0.109c-0.604,0.186-1.193-0.003-1.924-0.242c-0.881-0.292-1.836-0.521-2.931-0.308c-0.119-0.043-0.954-0.425-0.954-0.425
		s-0.306,0.169-0.358,0.202c-0.901-0.172-1.764-0.139-2.573-0.053c-1.134,0.113-2.028,0.199-2.771-0.388l-0.232-0.183l-0.191-0.017
		l-1.035-0.156c-0.066-0.006-0.457-0.046-0.457-0.046l-0.318-0.183l-0.365,0.043c-1.392,0.179-2.943,0.026-4.436-0.116
		c-1.559-0.146-3.322-0.308-4.979-0.049c-1.008-0.213-1.844-0.292-2.831-0.358l-1.983-0.186l-0.186,0.023
		c-0.013,0.003-3.382,0.653-3.382,0.653c-1.89,0.328-3.853,0.663-5.821,1.326l-0.537,0.172l-0.166,0.537
		c0,0-0.013,0.043-0.033,0.086c-0.073,0-0.245,0.017-0.245,0.017c-0.444,0.023-1.154,0.09-1.737,0.68v-0.006l-0.146,0.109
		c-2.089,1.604-4.682,3.597-4.867,6.827l-0.014,0.341l0.152,0.256c0-0.01,0.239,0.397,0.239,0.397
		c0.072,0.113,0.198,0.295,0.198,0.345l-0.006,0.033l-0.094,0.435l0.232,0.388c0.523,0.842,1.254,1.445,1.949,2.029
		c0.444,0.375,0.869,0.732,1.135,1.077l0.039,0.05l0.093,0.097l2.766,2.257l0.179,0.06c0.902,0.321,1.081,0.908,1.319,2.38
		c0.14,0.915,0.312,1.937,0.936,2.812l0.039,0.043l0.073,0.083l0.04,0.043c1.286,1.164,1.956,2.623,2.659,4.17
		c0.53,1.171,1.087,2.374,1.93,3.501l0.179,0.246l0.292,0.116c1.962,0.792,3.223,2.423,4.562,4.144
		c0.915,1.181,1.87,2.407,3.104,3.488l0.285,0.245c0,0,0.238,0.013,0.271,0.013c0.404,0.325,0.782,0.417,1.101,0.411
		c0.325,0.351,3.09,3.222,3.123,3.266c0.313,0.543,0.71,0.985,1.107,1.37c0.484,0.474,0.783,0.779,0.796,1.14l0.053,1.035h1.041
		c0.378,0,0.544,0.166,1.015,1.034c0.365,0.676,0.875,1.591,1.91,2.056c0.563,0.461,1.2,0.729,1.771,0.935
		c0.981,0.361,1.239,0.524,1.372,1.038l0.186,0.719l0.729,0.1c1.187,0.172,2.479,1.233,2.852,2.328c0.007,0.172,0.02,0.98,0.02,0.98
		c0,1.774-0.219,3.074-0.683,4.268c-0.08,0-0.498,0-0.498,0s0,1.074,0,1.246c-0.921,1.632-1.08,3.396-1.206,4.96
		c0,0-0.007,0.054-0.007,0.106c-0.822,1.021-1.273,2.188-1.604,3.13l-0.491,1.313l-0.053,0.126l0.026,0.299
		c0.014,0.039,0.033,0.226,0.033,0.226c0,0.411-0.231,0.875-0.471,1.353c-0.318,0.637-0.677,1.34-0.677,2.201
		c0,0,0.106,0.478,0.146,0.703c-0.245,0.518-0.392,1.101-0.392,1.724l0.1,1.406c0,0.013,0.087,1.213,0.087,1.213l-0.047,0.577
		l-0.04,0.186c0,0,0.53,0.146,0.822,0.205c-0.292,0.033-0.742,0.073-0.742,0.073s0.053,0.093,0.099,0.187
		c-0.006,0.212-0.039,2.095-0.039,2.095c0,0.756,0.06,1.366,0.179,1.923c-0.013,0.213-0.119,1.101-0.119,1.101
		c0,0.869,0.165,1.658,0.325,2.427c0.152,0.736,0.285,1.42,0.285,2.109l-0.073,0.868l-0.08,0.431l0.245,0.372
		c0.266,0.397,0.332,0.854,0.412,1.379c0.093,0.649,0.198,1.366,0.662,2.095l0.199,0.318c0,0,0.04,0.014,0.08,0.027
		c0,0.066-0.014,0.438-0.014,0.438c0,0.305,0.073,0.716,0.278,1.113l-0.02,0.014l0.385,0.981c0.742,1.883,1.585,4.005,2.831,5.901
		c0.392,1.313,1.24,2.229,2.003,3.037c0.597,0.637,1.167,1.246,1.452,1.936l0.112,0.292l1.141,0.862
		c1.379,1.008,3.235,2.4,3.349,3.807c-0.232,0.357-0.392,0.769-0.392,1.153l0.026,0.438c0,0.013,0.021,0.298,0.021,0.298
		s-0.007,0.007-0.007,0.021l-0.186,0.112l-0.133,0.18c-0.332,0.438-0.756,1.094-0.756,1.83l0.106,0.597
		c0.357,0.994,1.432,1.26,2.294,1.472c0.318,0.066,0.968,0.232,1.101,0.371c0.014,0.033,0.093,0.246,0.093,0.246l0.239,0.179
		c1.008,0.796,1.902,0.583,2.619,0.425c0,0,0.065-0.014,0.126-0.027c0.835,0.033,1.631,0.717,2.553,1.525
		c0,0,0.02,0.014,0.033,0.026c0.557,1.101,1.498,1.79,2.254,2.334c0.756,0.53,1.42,0.995,1.764,1.711
		c0.239,1.153,1.062,1.896,1.665,2.44c0.431,0.385,0.835,0.742,0.921,1.074l0.206,0.716l0.756,0.079
		c0.418,0.04,0.57,0.227,1.008,0.889c0.299,0.451,0.67,1.021,1.293,1.42l0.033,0.025l0.087,0.04l0.039,0.026
		c0.498,0.213,0.995,0.65,1.519,1.121c0.007,0.02,1.273,1.055,1.273,1.055l0.126,0.039c0,0,0.205,0.073,0.385,0.133
		c0.013,0.066,0.026,0.133,0.026,0.133l0.404,0.238c0.033,0.007,1.107,0.518,1.107,0.518c0.013,0.007,1.008,0.451,1.008,0.451
		l0.238,0.039c0,0,0.173,0,0.306,0c1.266,0.902,2.665,1.048,3.806,1.141c1.101,0.1,2.056,0.186,2.852,0.743l0.179,0.132l0.252,0.061
		c-0.006,0,0.684,0.166,0.684,0.166c0.968,0.252,2.546,0.596,3.699-0.306c0.717,0.093,1.293,0.266,1.771,0.551l0.378,0.219
		l0.425-0.093c0.597-0.133,1.22-0.066,1.89,0c0.928,0.079,1.837,0.126,2.766-0.173c1.127,0.299,2.273,0.464,3.653-0.186
		c1.79,0.106,3.216-0.265,4.714-0.677l0.199-0.06v-0.013c1.233-0.14,2.4-0.577,3.515-1.028c-0.007,0,0.954-0.345,1.491-0.537
		c0.066,0.126,0.12,0.312,0.18,0.644c0.079,0.504,0.252,1.366,0.901,2.056c-0.013,0.119-0.026,0.252-0.026,0.252
		c0,1.333,0.65,2.4,1.221,3.342c0.351,0.577,0.683,1.114,0.835,1.657l0.026,0.066l0.053,0.12l0.027,0.06
		c0.371,0.643,0.616,1.386,0.875,2.154c0.291,0.862,0.583,1.738,1.061,2.573c2.679,4.178,6.101,7.838,9.402,11.378l0.65,0.703
		c0,0,0.418-0.172,0.457-0.192c0.061,0.1,0.113,0.206,0.113,0.206c0.172,0.357,0.385,0.796,0.769,1.127l0.054,0.053l0.119,0.08
		l0.06,0.026c1.326,0.663,2.234,1.472,3.296,2.407c0,0.007,0.968,0.842,0.968,0.842c1.008,0.809,2.095,1.114,3.169,1.406
		c1.214,0.357,2.269,0.649,2.932,1.584l0.742,1.041c0,0,0.544-0.517,0.617-0.59c0.391,0.126,1.027,0.325,1.027,0.325
		c0.61,0.126,0.981,0.205,1.379,0.61l0.159,0.158l0.22,0.08c1.518,0.597,3.069,0.836,4.574,1.061
		c1.161,0.173,2.262,0.346,3.229,0.664l0.411,0.139l0.392-0.179c0.271-0.12,0.517-0.08,1.253,0.132l0.915,0.259l0.318-0.126
		c0.729-0.252,1.585-0.278,2.493-0.318c1.473-0.046,3.143-0.105,4.615-1.24c1.008-0.669,2.254-1.538,2.446-3.328
		c1.28-2.208,1.956-4.582,1.956-6.876c0,0-0.133-1.485-0.165-1.757c0.179-0.445,0.371-1.008,0.371-1.651
		c0-0.332-0.126-0.649-0.278-0.968c0.046-0.226,0.179-0.876,0.179-0.876c0-1.339-0.835-2.268-1.519-3.017
		c0.007,0-0.537-0.617-0.537-0.617l-0.186-0.198l-0.544,0.039c-2.765,0.266-3.925,2.679-4.774,4.456l-0.397,0.836l-0.093,0.172
		l0.1,0.398c0,0.013,0.133,0.941,0.133,0.941c0,1.18-0.65,2.188-1.399,3.368c-0.438,0.689-0.915,1.499-1.273,2.388
		c-0.504,0.172-0.994,0.424-1.519,0.861c-0.656,0.531-0.895,0.663-1.253,0.564l-0.616-0.16l-0.444,0.444
		c-0.146,0.146-0.212,0.173-0.968-0.026c-0.564-0.146-1.221-0.238-1.91-0.066c-1.081-0.716-2.414-1.134-3.938-1.525l-0.902-0.238
		l-0.106-0.014c-0.901-0.065-1.637-0.543-2.479-1.1c-0.689-0.451-1.386-0.902-2.228-1.174c-1.645-0.763-3.229-1.97-4.762-3.137
		c-0.013-0.007-2.247-1.638-2.506-1.823c-0.08-0.1-2.745-3.144-2.745-3.144c-2.619-2.871-5.305-5.842-6.491-9.488
		c-0.007-0.014-0.783-1.221-0.783-1.221c-0.312-0.377-0.563-0.676-0.563-0.914v-0.213l-1.214-3.057
		c-0.689-1.585-1.385-3.216-1.524-4.9c1.776-1.902,2.978-3.66,4.184-6.16l0.1-0.198l0.014-0.232c0.02-0.491,0.271-0.955,0.55-1.499
		c0.385-0.729,0.855-1.611,0.855-2.771l-0.02-0.357c-0.007-0.094-0.02-0.166-0.02-0.166l0,0l-0.1-0.617
		c-0.061-0.464-0.206-1.432-0.995-2.055c-0.093-0.318-0.238-0.624-0.517-0.922l0,0c0,0-0.04-0.047-0.094-0.106
		c-0.006-0.086-0.053-0.471-0.053-0.471l-0.583-0.305c-0.518-0.187-0.955-0.106-1.353,0.165c-1.214,0.066-2.129,0.75-2.865,1.313
		c-0.49,0.378-0.915,0.644-1.353,0.775c-0.45-0.663-0.57-1.524-0.663-2.726c-0.105-1.239-0.226-2.525-0.875-3.772
		c0.014-0.066,0.026-0.173,0.026-0.173c0-0.013,0.079-0.702,0.079-0.702c0-0.358-0.146-0.703-0.357-1.034
		c0.033-0.266,0.105-0.803,0.105-0.803c0-0.935-0.265-1.923-0.769-2.99c0.066-0.239,0.132-0.557,0.132-0.557l-0.146-0.929
		c0,0-0.033-0.146-0.053-0.239c0.106-0.119,0.61-0.689,0.61-0.689s-0.544-0.464-0.65-0.557c-0.053-0.411-0.77-6.432-0.77-6.432
		c0-0.014-0.557-4.522-0.583-4.801c0.013-0.186,0.126-1.419,0.126-1.419c0-1.134-0.192-2.188-0.378-3.21
		c-0.179-0.968-0.345-1.883-0.345-2.798c0-0.53,0.053-1.021,0.172-1.499l0.08-0.345l-0.14-0.345
		c-0.483-1.127-0.782-2.824-0.895-5.013c0.053-0.079,0.119-0.173,0.119-0.173s0.02-0.039,0.033-0.066
		c0.252,0.094,0.49,0.213,0.763,0.199c0.026,0.04,0.357,0.365,0.357,0.365l0.537-0.073c1.333-0.179,2.407,0.306,3.66,0.868
		c1.015,0.458,2.022,0.855,3.177,1.016c1.645,1.014,3.263,1.021,4.694,1.008c1.379-0.014,2.58-0.014,3.74,0.795l0.331,0.239
		l0.404-0.04c0.889-0.086,1.798,0.172,2.766,0.444c1.326,0.364,2.838,0.789,4.516,0.385c-0.007,0,0.471-0.087,0.471-0.087
		c0.013-0.013,0.198-0.053,0.298-0.066c0.021,0.027,0.232,0.358,0.232,0.358l0.438,0.106c3.641,0.836,6.963,1.153,9.873,0.955
		c0.644,0.172,1.24,0.146,1.691,0.079c0.663-0.1,0.729-0.066,0.815,0.026l0.637,0.703c0,0,0.644-0.438,0.723-0.49
		c0.04,0,2.082-0.014,2.082-0.014s0.179-0.238,0.199-0.266c0.079-0.066,0.172-0.093,0.888,0.213
		c0.418,0.172,0.982,0.397,1.605,0.438c0.53,0.238,1.041,0.172,1.393,0.093l0.172,0.205l1.883,0.073
		c0.896,0.014,1.711,0.014,2.321,0.345l0.192,0.112l0.285,0.033c-0.007,0,0.397,0.04,0.397,0.04c0.206,0.04,0.836,0.106,1.452-0.226
		c0.305,0.073,0.803,0.186,0.803,0.186s0.238,0.027,0.312,0.04c0.06,0.073,0.312,0.418,0.312,0.418s2.864-0.352,3.242-0.404
		c0.85,0.716,1.87,0.702,2.447,0.669c0.397-0.006,0.756-0.033,0.915,0.087l0.563,0.397l0.604-0.331
		c0.484-0.266,0.915-0.187,1.717-0.014c0.558,0.126,1.24,0.239,1.996,0.186c0.014,0,2.175,0.358,2.175,0.358l0.478-0.053
		c1.002-0.14,1.791-0.239,2.44,0.172l0.186,0.126l0.325,0.047l0.55,0.112c0.332,0.086,0.969,0.226,1.618,0.047
		c0.411,0.198,0.875,0.265,1.419,0.1c0.079,0.172,0.425,0.908,0.425,0.908s0.875-0.531,1.034-0.623
		c0.073-0.014,0.146-0.014,0.146-0.014c0.192,0,0.862,0,1.379-0.518c0.306-0.219,1.082-0.013,1.765,0.159
		c0.888,0.226,1.764,0.397,2.639,0.232c1.433,0.523,3.05,0.604,4.489,0.67c0.511,0.026,1.061,0.065,1.598,0.119
		c-0.006,0.026-0.02,0.04-0.033,0.066c-1.001,0.835-1.505,1.949-1.876,2.759c-0.345,0.762-0.67,1.472-1.233,1.916l0.093-0.061
		c-0.358,0.173-0.577,0.512-0.723,0.936c-0.06,0.033-0.133,0.073-0.133,0.073c-0.723,0.478-1.12,1.193-1.214,1.923
		c-0.225,0.053-0.861,0.205-0.861,0.205s-0.053,0.411-0.053,0.432c-0.094,0.165-0.988,1.776-0.988,1.776
		c-0.378,0.749-0.71,1.433-1.2,2.036c0,0,0.053-0.026,0.079-0.047c-0.298,0.252-0.955,0.902-2.719,2.652c0,0-1.73,1.685-1.896,1.844
		c-0.689,0.451-1.047,1.141-1.313,1.711c-0.146,0.291-0.357,0.742-0.49,0.782l-0.252,0.093l-0.206,0.226
		c0.007-0.007-1.333,1.405-1.333,1.405c0.014-0.006-1.113,1.221-1.452,1.592c-1.173,0.478-1.976,1.22-2.605,1.83
		c-0.458,0.438-0.929,0.889-1.499,1.233l-0.318,0.198l-0.125,0.358c-0.1,0.266-0.313,0.397-0.936,0.71
		c-0.63,0.312-1.459,0.762-1.963,1.717c-0.053,0.014-0.119,0.04-0.119,0.04c-0.637,0.212-0.969,0.623-1.121,1.114
		c-0.165,0.093-1.398,0.809-1.398,0.809c-0.915,0.471-1.857,0.981-2.64,1.816l-0.065,0.007c0,0-0.876,0.425-0.942,0.458
		c-0.086,0.007-0.331,0.014-0.331,0.014l-0.119,0.125l-1.764,1.041c-0.862,0.471-1.791,0.982-2.666,1.658l-0.047,0.04l-0.086,0.079
		l-0.04,0.053l-0.821,0.69c-0.518,0.371-0.902,0.763-1.214,1.193c-0.604,0.093-1.121,0.404-1.459,0.656
		c-0.152,0.112-0.392,0.285-0.483,0.318c-0.047-0.007-0.398-0.033-0.398-0.033l-0.332,0.266c-0.537,0.411-1.26,0.716-2.016,1.034
		c-0.782,0.331-1.671,0.756-2.467,1.34c-1.22-0.094-2.228,0.517-2.971,0.968c-0.404,0.252-0.828,0.504-1.239,0.636
		c-1.678,0.12-3.335,0.717-4.701,1.672c-1.691,0.298-3.355,0.861-4.575,1.272c0,0-0.385,0.133-0.57,0.192
		c-0.836-0.1-1.631-0.06-2.44,0.021c-0.756,0.065-1.472,0.139-2.082,0.013l-1.313-0.266v2.434c0,0,0.757,0.352,0.757,0.365
		l0.312,0.152c0.013,0.014,0.312,0.166,0.312,0.166l0.079,0.014c3.899,0.649,8.461,1.047,12.691-1.114
		c1.181-0.438,2.48-0.782,3.74-1.101c1.717-0.458,3.488-0.916,5.291-1.751c0.014-0.013,3.21-1.538,3.21-1.538
		c2.433-1.114,4.946-2.274,7.021-3.952l0.166-0.14c0,0,0.1-0.179,0.106-0.191c0.06-0.027,0.139-0.054,0.139-0.054
		c1.147-0.49,2.274-1.22,3.468-2.201c1.3-0.558,2.427-1.412,3.336-2.108c-0.007,0.013,1.929-1.373,1.929-1.373
		c2.521-1.246,4.244-2.639,5.358-4.303c0.079-0.066,0.557-0.438,0.557-0.438c3.534-2.718,6.87-5.284,9.654-9.018
		c0.478-0.411,0.909-0.929,1.3-1.433l0.418-0.53c0.696-0.994,1.412-1.704,2.089-2.387c0.756-0.743,1.524-1.525,2.241-2.573
		c-0.007,0,3.104-4.402,3.104-4.402c1.524-2.069,3.096-4.218,4.376-6.353h-0.014c0.153-0.212,0.65-0.929,0.65-0.929
		c0.285-0.49,0.464-0.742,0.544-0.795c0.013,0,0.291,0.053,0.291,0.053l0.292-0.106c0.683-0.252,1.598-0.105,2.479,0.04
		c0.902,0.159,1.857,0.252,2.792,0.04c1.319,0.45,2.778,0.371,3.972,0.298c0.988-0.06,1.923-0.126,2.692,0.054l0.483,0.099
		l0.405-0.291c0.186-0.133,0.404-0.146,1.008-0.08c0.729,0.06,1.512,0.04,2.32-0.385c2.308,0.266,4.655,0.113,6.923-0.053
		c1.816-0.133,3.687-0.259,5.57-0.199l0.637,0.027l0.331-0.537c0,0,0.013-0.033,0.033-0.061c0.086,0.027,0.186,0.047,0.186,0.047
		c0.392,0.106,1.041,0.271,1.751-0.02c0.868-0.292,2.108-0.438,3.321-0.584c0,0,1.744-0.238,1.884-0.266
		c0.504,0.027,0.868-0.158,1.146-0.331c0.047,0.046,0.537,0.583,0.537,0.583s0.518-0.596,0.617-0.729
		c1.757-0.054,3.256-0.623,4.701-1.168c1.153-0.438,2.254-0.848,3.322-0.914l0.312-0.021l0.252-0.165
		c0.689-0.479,1.458-0.796,2.268-1.154c0.649-0.278,1.459-0.623,2.215-1.088c2.586-0.57,4.813-2.34,6.697-3.965
		c0.013-0.014,0.563-0.557,0.563-0.557c1.969-1.963,4.197-4.191,4.939-7.36c0.478-0.518,0.59-1.153,0.644-1.433
		c0,0,0.007-0.079,0.02-0.146c0.06-0.026,0.464-0.186,0.464-0.186l0.106-2.454c0-0.013,0.093-2.453,0.093-2.453
		C965.755,135.374,965.53,133.981,965.039,132.748z M908.372,49.359c0.007,0,1.227-0.047,1.552-0.057
		c0.198,0.09,1.3,0.606,1.3,0.606h0.238c2.904,0,5.689,0.693,8.375,1.37c0.007,0,3.335,0.776,3.335,0.776
		c0.743,0.162,1.021,0.67,1.485,1.645c0.014,0.02,0.597,1.107,0.597,1.107V54.8c0.186,0.544,0.491,0.988,0.796,1.329
		c-0.014-0.006,0.08,0.116,0.172,0.223c-0.025,0.285-0.072,0.746-0.072,0.746l0.007,0.746c0,0.484-0.04,0.842-0.292,1.267
		l-0.425,0.729c0,0,0.451,0.468,0.53,0.547c0.014,0.01,0.014,0.026,0.014,0.026l-0.026,0.308c0,0.037,0,0.518,0,0.57
		c-0.133,0.299-0.245,0.597-0.245,0.875c0,0.769,0.391,1.422,0.696,1.943c0.238,0.391,0.438,0.732,0.438,0.988l-0.014,0.112
		l-0.198,0.77c0,0,0.504,0.312,0.597,0.378c0,0.06,0.007,0.132,0.007,0.132l-0.007,0.424c0,0.392,0.112,0.77,0.305,1.111
		c0.106,0.395,0.152,0.795,0.152,1.19c0,1.406-0.63,2.726-1.346,4.055c-0.689,0.537-1.711,1.078-2.831,0.859
		c-2.209-2.262-4.503-3.13-6.996-2.597l-0.371,0.08l-0.238,0.278c-0.776,0.898-1.798,1.409-2.879,1.953c0,0-1.299,0.742-1.77,1.001
		c-1.107-0.02-2.295-0.905-3.448-1.767c0,0-0.431-0.315-0.61-0.448c-0.1-0.298-0.908-2.646-0.908-2.646
		c-0.637-1.737-1.286-3.521-1.571-5.231l-0.06-0.345l-0.955-0.948c-0.908-0.885-1.697-1.644-1.697-2.619l0.119-0.683l0.226-0.703
		l-0.57-0.481c-0.133-0.106-0.133-0.149-0.133-0.215l0.126-0.673l0.205-1.26c0-0.318-0.132-0.646-0.285-0.991
		c0.061-0.262,0.18-0.782,0.18-0.782c0-0.729-0.318-1.319-0.563-1.787c-0.199-0.368-0.365-0.693-0.378-1.021
		C902.046,49.528,905.116,49.436,908.372,49.359z M818.763,46.889c0.829-1.051,1.678-2.138,2.388-3.259
		c1.067-1.13,2.294-2.205,3.634-3.209c0.053,0.05,0.112,0.116,0.112,0.116l1.3-1.098c0.345-0.302,0.656-0.58,0.922-0.64l0.584-0.113
		c0,0,0.092-0.245,0.105-0.265c0.338,0.02,0.862,0.006,1.346-0.395c0.299-0.216,0.883-0.295,1.506-0.375
		c0.663-0.083,1.365-0.238,2.049-0.563c0.357,0.086,1.227,0.226,1.909-0.315c0.318,0.026,3.004,0.249,3.004,0.249
		c2.421,0.239,4.603,0.418,6.671,0.199c0.478,0.354,0.968,0.474,1.2,0.497c0.259,0.03,0.271,0.04,0.318,0.086
		c0,0.007,0.378,0.385,0.378,0.385l1.034-0.129c0.252-0.037,0.703-0.097,1.101-0.077c-0.305,0.289-0.716,0.547-1.267,0.816
		c-0.013,0.006-0.669,0.351-0.835,0.438c-1.982,0.192-3.933,0.772-5.511,1.253c-1.167,0.355-2.374,0.729-3.567,0.968l-0.371,0.076
		c0,0-0.159,0.186-0.186,0.219l-0.014,0.006c-0.172,0.05-0.41,0.189-0.637,0.381c-0.583,0.017-1.12,0.212-1.578,0.411
		c-0.45,0.186-0.835,0.352-1.146,0.292l-0.299-0.046l-1.419,0.53c-0.835,0.292-1.962,0.703-2.931,1.658
		c-1.015,0.013-1.844,0.527-2.453,0.921c-0.563,0.358-1.048,0.669-1.564,0.646l-0.087-0.003l-0.165,0.017l-0.08,0.02
		c-0.809,0.209-1.473,0.663-2.043,1.064c-0.656,0.448-1.22,0.836-1.855,0.836h-0.306l-1.937,1.121
		c-0.649,0.365-1.405,0.802-2.135,1.293C816.708,49.571,817.688,48.278,818.763,46.889z M807.358,75.021
		c0-0.083,0.006-0.189,0.006-0.189c0.008-0.033,0.008-0.295,0.008-0.424c0.529-0.925,0.835-1.917,1.074-2.858
		c0.219-0.875,0.424-1.704,0.854-2.377l0.325-0.514l-0.259-0.551l-0.046-0.188c0-0.242,0.158-0.601,0.357-1.044
		c0.213-0.458,0.378-0.978,0.471-1.525c1.38-0.448,2.553-0.981,3.436-1.615c0.1-0.063,0.219-0.073,0.735-0.043
		c0.014,0,0.836,0.023,0.836,0.023s0.252-0.136,0.252-0.143l2.612-1.247c0,0,2.547-1.263,3.13-1.545
		c0.67,0.013,1.24-0.275,1.631-0.474c0.259-0.136,0.57-0.295,0.69-0.269l0.41,0.093l0.85-0.464c0.861-0.475,1.438-0.789,2.387-0.842
		l0.252-0.017l0.259-0.149l1.445-0.816l0.915-0.477l0.119-0.136c0.086-0.086,0.159-0.116,0.684-0.089
		c0.49,0.013,1.365,0.02,2.148-0.617c0.179-0.026,0.702-0.105,0.702-0.105c1.685-0.246,3.435-0.504,5.079-1.359l0.259-0.133
		l0.152-0.245c0.106-0.156,0.106-0.156,0.563-0.166c0.412-0.007,1.214-0.06,1.943-0.703c0.981,0.066,1.87-0.053,2.771-0.202
		c0.836-0.133,1.604-0.262,2.334-0.149c1.035,0.411,2.01,0.033,2.467-0.188c0.875,0.205,1.631,0.017,2.262-0.232
		c0.563-0.215,0.762-0.271,0.994-0.176l0.67,0.256c0,0,0.604-0.601,0.769-0.776c1.181-0.192,2.374-0.109,3.807,0.043
		c1.339,0.146,2.864,0.299,4.39,0c0.609,0.146,1.233,0.11,1.764,0.03c0.371-0.05,0.77-0.109,0.981-0.057l0.007-0.026
		c0.656,0.219,1.286,0.106,1.757-0.01c0,0,0.04-0.01,0.04-0.014c0.013,0.076,0.039,0.415,0.039,0.415l0.404,0.305
		c3.044,2.258,7.42,2.619,10.418,1.979c0-0.007,0.318-0.073,0.318-0.073l0.225-0.229c0.77-0.776,2.48-0.826,3.926-0.776
		c0.159,0.106,1.055,0.726,1.055,0.726c0.643,0.497,1.412,1.024,2.34,1.333c0.12,0.122,1.884,1.959,1.884,1.959
		c2.632,2.686,5.119,5.209,5.683,8.706l0.006,0.086l0.061,0.166l0.033,0.08c1.134,2.218,1.711,4.698,1.711,7.38
		c0,3.896-1.201,8.302-3.568,13.103l-0.742,1.333c-0.49,0.984-0.902,1.816-1.691,2.188c-1.041,0.464-1.976,0.123-3.149-0.318
		c-0.981-0.375-2.32-0.849-3.846-0.577c-0.198-0.063-2.095-0.727-2.095-0.727c-0.876-0.341-1.804-0.712-2.838-0.938l-2.428-0.285
		c-1.067-0.08-2.063-0.152-3.202-0.537l-0.06-0.02l-0.133-0.02l-0.066-0.014c-2.984-0.225-5.199-0.616-8.017-1.203
		c-0.497-0.206-1.657-0.606-2.759-0.116c-1.876-0.696-3.879-0.842-5.496-0.951c-1.486-0.103-3.024-0.212-4.437-0.624
		c-0.033-0.02-2.778-0.438-2.778-0.438l-5.716-0.895l-0.352,0.188c-0.583,0.352-1.359,0.173-2.255-0.033
		c-0.629-0.146-1.346-0.308-2.068-0.271c-0.775-0.212-1.552-0.292-2.348-0.358c0.014,0-1.703-0.186-1.703-0.186l-0.146-0.02
		l-0.318,0.139c-0.471,0.249-0.836,0.159-1.564-0.06c-0.584-0.169-1.221-0.312-1.924-0.252c-0.065-0.046-0.139-0.096-0.139-0.096
		c-0.551-0.212-1.001-0.004-1.267,0.139c-0.219,0.004-1.664,0.014-1.664,0.014c-1.253-0.03-2.487-0.003-3.674,0.428
		c-0.205-0.043-1.491-0.312-1.491-0.312c-0.995-0.252-2.148-0.537-3.355-0.365c-2.526-0.271-5.245-0.361-7.652-0.438
		c0,0-1.645-0.056-2.394-0.079c-0.245-0.574-0.392-1.164-0.392-1.804c0-0.849,0.173-1.777,0.346-2.759
		c0-0.013,0.311-1.833,0.311-1.833S807.425,75.104,807.358,75.021z M789.681,76.568c1.021-0.378,2.148-1.113,3.17-1.113
		c1.578-1.028,3.806-1.028,5.396,0l0.465,0.828c-0.656,2.324-2.056,3.72-4.191,5.02c-2.891-0.46-6.418,0.936-8.746-1.2
		C787.174,79.168,788.474,78.061,789.681,76.568z M765.319,111.878c0.49-0.368,0.676-0.889,0.742-1.111c0,0,0.014-0.05,0.033-0.103
		c0.026-0.02,0.066-0.04,0.066-0.04l0.06-0.046c0.809-0.696,1.061-1.608,1.272-2.344c0.14-0.514,0.266-0.945,0.505-1.147
		l0.292-0.235l0.072-0.365c0.205-0.935,0.736-1.558,1.412-2.344c0.544-0.64,1.074-1.296,1.499-2.122
		c1.93-2.228,3.793-5.132,5.378-8.391l0.02-0.033l0.438-0.948c0.299-0.802,0.345-0.802,0.57-0.802h0.073l0.152-0.023l0.079-0.017
		c1.42-0.405,2.646-1.167,3.833-1.903c1.114-0.696,2.281-1.406,3.581-1.724c0.278,0.066,1.896,0.504,1.896,0.504
		c1.313,0.391,2.559,0.716,4.084,0.796c0.133,0.073,1.021,0.524,1.021,0.524c0.02,0.006,0.689,0.368,1.047,0.563
		c0.021,0.212,0.027,0.451,0.027,0.451c0,1.157-0.266,2.281-0.558,3.471c-0.312,1.247-0.623,2.53-0.623,3.906
		c0,0,0.014,0.322,0.014,0.451c-0.292,0.68-0.438,1.456-0.438,2.464l0.033,1.79l-0.1,1.107l0,0
		c-0.291,0.666-0.457,1.405-0.457,2.274c0,0.901,0.159,1.804,0.305,2.679c-0.006-0.013,0.219,1.714,0.259,2.095
		c-0.013,0.11-0.053,0.365-0.053,0.365c-0.358,1.973-0.689,3.839-0.689,5.895l0.066,1.539l0.013,0.093v0.086l0.073,0.166
		c0.312,0.726,0.471,1.498,0.471,2.446l-0.186,2.301c0,0.017-0.186,2.497-0.186,2.497c0,0.563,0.073,1.146,0.198,1.73
		c-0.06,0.544-0.238,1.174-0.404,1.79c-0.258,0.935-0.53,1.91-0.53,2.892c0,0,0.06,0.597,0.079,0.762
		c-0.006,0.1-0.165,1.373-0.165,1.373c-0.219,2.327-0.464,3.09-1.592,3.315c-1.206,0.318-2.234-0.173-3.435-0.743
		c-0.928-0.45-1.856-0.849-2.904-0.98c-0.49-0.346-1.015-0.551-1.498-0.71c-0.73-0.232-0.975-0.352-1.114-0.63l-0.306-0.597h-0.676
		c-1.015,0-1.877-0.385-2.891-0.822c-0.007,0-0.969-0.404-1.088-0.464c-0.875-0.81-1.877-1.307-2.838-1.725
		c-1.24-0.53-2.029-0.955-2.4-1.83c0.039-0.199,0.112-0.411,0.252-0.676c0.245-0.491,0.551-1.102,0.551-1.884l-0.027-0.411
		l-0.033-0.262l-0.159-0.222c-1.233-1.747-2.878-1.867-4.323-1.966c-0.729-0.057-1.472-0.113-2.154-0.372l-0.61-0.229
		c0,0-0.451,0.385-0.478,0.407c-0.014,0-0.471-0.033-0.471-0.033c-0.02,0-0.252-0.022-0.385-0.033
		c-0.723-0.351-1.379-0.082-1.604,0.008c0.013-0.008-0.026,0.01-0.066,0.016c-0.206-0.069-0.61-0.209-0.61-0.209
		c-1.094-0.331-1.101-0.45-1.113-0.663c0.046-0.557,0.57-1.061,1.24-1.704c0.616-0.61,1.379-1.353,1.73-2.444
		c0.013-0.023,0.139-0.219,0.139-0.219C763.064,116.907,764.431,114.63,765.319,111.878z M736.03,92.43
		c-0.63,0.381-1.253,0.825-1.571,1.595c-0.364,0.259-0.683,0.59-0.935,1.038c-0.14,0.235-0.259,0.451-0.392,0.55l-0.066,0.046
		l-0.093,0.106l-1.445,1.91c-1.008,1.233-1.977,2.413-2.5,4.233c0,0-0.1,0.335-0.112,0.398c-0.425-0.285-0.862-0.626-1.34-1.084
		c-0.013-0.013-1.127-1.001-1.127-1.001s0.02,0.03,0.026,0.033c-0.159-0.189-0.464-0.507-1.074-1.154
		c-0.775-0.872-1.85-2.062-3.368-2.533c-2.003-2.191-4.39-3.972-6.499-5.55c-2.181-1.618-4.436-3.303-6.259-5.338
		c0-0.007-1.24-1.144-1.24-1.144c-1.127-0.952-1.97-1.734-1.97-2.589c0,0,0.08-0.391,0.12-0.53c0.676-0.68,1.425-1.26,2.268-1.887
		c0.954-0.713,1.87-1.445,2.679-2.324c0.172-0.06,0.842-0.312,0.842-0.312c1.193-0.444,2.222-0.832,3.541-1.114l0.312-0.072
		c0,0,0.14-0.14,0.159-0.166c0.06,0,0.385-0.007,0.385-0.007c0.358,0.014,1.048-0.033,1.645-0.431c0.186,0,1.273,0.006,1.273,0.006
		c1.405,0.033,2.705,0,4.045-0.531c0.186,0.023,6.975,0.843,6.975,0.843l0.133-0.017c2.713-0.302,5.822,0.112,8.249,0.517
		c0.106,0.057,0.425,0.219,0.425,0.219l0.842-0.189l-0.352,0.093l0.371,0.06c0.04,0.007,1.937,0.146,1.937,0.146
		c0.975,0.089,1.87,0.159,2.759,0.103c0.723,0.5,1.518,0.395,1.803,0.341c0,0,0.12-0.013,0.213-0.029
		c0.066,0.1,0.378,0.547,0.378,0.547L747.82,77c0.544-0.153,1.094,0.006,1.73,0.192c0,0,1.008,0.196,1.326,0.262
		c0.663,0.461,1.326,0.504,1.851,0.44c-0.047,0,0.464-0.01,0.623-0.01c0.112,0.026,2.553,0.541,2.553,0.541
		c1.153,0.212,2.334,0.428,3.534,0.809c0.033,0.013,1.227,0.226,1.227,0.226s1.883,0.242,2.5,0.318
		c0.132,0.136,0.271,0.242,0.411,0.328c-0.199,0.01-0.425,0.01-0.736-0.01c-0.855-0.06-2.142-0.129-3.229,0.729
		c-1.85,0.431-3.401,0.975-4.608,1.611c-3.023-0.179-5.583,1.008-8.063,2.155l-1.91,0.862l-0.1,0.043l-0.172,0.189
		c-0.219,0.265-0.285,0.265-0.332,0.255l-0.663-0.096l-0.391,0.541c-0.239,0.348-0.504,0.431-1.154,0.6
		c-0.04,0.021-1.519,0.551-1.519,0.551l-0.1,0.036l-0.119,0.143l-1.22,1.094c-0.796,0.653-1.711,1.413-2.268,2.649l-0.021,0.05
		l-0.033,0.073l-0.013,0.05C736.847,91.929,736.555,92.121,736.03,92.43z M744.18,114.868c-0.716-0.265-0.729-0.318-0.756-0.563
		l-0.06-0.392l-0.961-0.855c-0.955-0.869-2.148-1.936-3.588-2.506c-0.357-0.491-0.803-0.889-1.246-1.24
		c-0.352-0.271-0.922-0.723-0.922-0.938l0.039-0.155l0.08-0.202v-0.219c0-0.727,0.397-1.436,0.862-2.255
		c0.317-0.563,0.663-1.227,0.888-1.959c0.094-0.06,0.18-0.139,0.18-0.139c0.775-0.604,1.585-1.346,1.823-2.407
		c1.499-2.085,2.852-3.587,5.305-4.993l0.066-0.046l0.133-0.106l0.06-0.06c0.67-0.719,2.049-2.225,3.09-2.463l0.232-0.063
		l0.198-0.146c1.307-1.035,2.944-1.528,4.669-2.056c0.517-0.066,1.087-0.222,1.631-0.404c0.146,0.053,0.298,0.112,0.298,0.112
		c0.444,0.066,0.936-0.079,1.373-0.358c1.405,0.013,3.361-0.318,5.065-1.748c0.478,0.027,0.889-0.043,1.181-0.116
		c0,0,0.046-0.013,0.086-0.02c0,0.007,0.007,0.014,0.007,0.014c0-0.007,0-0.007,0,0.003c0,0.063,0.093,0.882,0.093,0.882
		c0,1.399-0.71,2.683-1.459,4.045c0,0.01-0.424,0.813-0.544,1.031c-1.166,0.796-1.816,2.042-2.135,2.812
		c-0.994,0.736-1.405,1.76-1.671,2.463c-0.278,0.746-0.471,1.287-1.041,1.588l-0.166,0.086l-0.119,0.139
		c-0.742,0.81-1.247,1.758-1.757,2.683c-0.67,1.26-1.32,2.44-2.407,3.077l-0.232,0.139l-1.246,1.976c0,0.01-0.152,0.255-0.206,0.361
		c-1.207,0.849-1.976,2.109-2.586,3.123c-0.988,1.638-1.631,2.573-2.971,2.619C745.009,115.227,744.524,114.991,744.18,114.868z
		 M801.709,202.239c-0.551,0.04-1.233,0.126-1.91,0.544c0-0.007-0.007-0.026-0.007-0.026c-3.521,1.551-7.221,1.949-11.133,2.373
		c0,0-2.016,0.226-2.572,0.292c-1.135-0.61-2.361-0.749-3.369-0.849c-0.994-0.105-1.936-0.199-2.745-0.623
		c-0.026-0.014-0.676-0.292-0.676-0.292c-1.181-0.517-2.454-0.975-3.767-0.729c-0.518-0.364-1.067-0.637-1.498-0.822
		c-0.518-0.212-1.008-0.411-1.287-0.716l-0.039-0.04l-0.094-0.079l-0.046-0.04c-1.193-0.822-2.274-2.188-3.315-3.508
		c-0.61-0.77-1.319-1.625-2.056-2.407c-0.02-0.975-0.663-1.591-1.147-2.042c0,0-0.231-0.266-0.385-0.438
		c0.014-0.093,0.027-0.166,0.027-0.166c0-1.055-0.756-1.611-1.167-1.923c0,0-0.306-0.259-0.332-0.272l0,0l0.066-0.609l0.073-0.61
		h-1.227c-0.465,0-0.995-0.557-1.559-1.153c-0.014-0.014-0.431-0.425-0.563-0.57c-0.212-0.677-0.597-1.193-0.882-1.519
		c-0.378-0.418-0.471-0.55-0.471-0.782v-0.444l-0.305-0.318c-0.929-0.941-1.95-1.764-2.944-2.573
		c-2.069-1.678-4.025-3.262-4.788-5.669l-0.039-0.126c0,0-0.094-0.139-0.106-0.166c0.013,0.02,0.04,0.047,0.04,0.047l-0.889-1.247
		c-0.345-0.444-0.623-0.796-0.822-1.246h-0.014c-0.192-0.729-0.583-1.34-0.955-1.87c-0.397-0.557-0.742-1.048-0.742-1.525
		l0.014-0.105l0.026-0.299l-0.133-0.271c-0.855-1.804-1.379-3.488-1.445-4.629l-0.033-0.637c0,0-0.484-0.238-0.53-0.265
		c0.006-0.014,0.006-0.04,0.006-0.04l0.173-0.955l-0.146-0.616c0.006-0.245,0.06-1.253,0.06-1.253l-0.259-5.106
		c0-0.901,0.079-1.677,0.238-2.374c0.007-0.006,0.398-3.156,0.398-3.156c0.238-2.294,0.49-4.661,1.398-6.723l0.021-0.054l0.04-0.106
		l0.013-0.059c0.604-2.951,1.405-5.246,2.513-7.195l0.113-0.198l0.026-0.239c0.014-0.159,0.278-0.464,0.491-0.716
		c0.02-0.021,0.543-0.703,0.543-0.703c0.126-0.14,0.371-0.238,0.677-0.371c0,0,0.504-0.292,0.815-0.464
		c0.418,0.02,0.809,0.212,1.267,0.443c0.743,0.379,1.558,0.724,2.546,0.591c0.677,0.45,1.34,0.729,1.97,0.929
		c0.775,0.252,1.379,0.45,1.942,1.074l0.152,0.172l0.16,0.066l1.405,0.663c0.683,0.292,1.372,0.577,1.916,1.015l0.299,0.231h0.378
		c0.431,0,2.6,0.066,3.328,1.261l0.292,0.477l0.558,0.04c0.543,0.046,1.074,0.451,1.69,0.915c0.789,0.597,1.771,1.326,3.07,1.34
		c1.233,0.676,2.56,1.047,3.925,1.393c-0.013-0.007,1.539,0.41,1.737,0.464c0.563,0.478,1.233,0.769,1.823,0.994l0.511,0.187
		l0.054,0.02l0.112,0.026c0.922,0.152,1.823,0.431,2.778,0.723c1.067,0.318,2.387,0.716,3.767,0.875
		c0.583,0.358,1.239,0.544,1.81,0.684c1.267,0.298,1.399,0.431,1.426,0.895l0.199,2.547c0.159,2.532,0.358,5.41,1.107,8.076
		c-0.133,0.583-0.219,1.153-0.219,1.685l0.186,2.175c0.007,0,0.159,1.83,0.159,1.83l-0.093,0.994
		c-0.007,0.026-0.026,0.332-0.026,0.332c0,0.742,0.384,1.313,0.663,1.737c0,0,0.146,0.238,0.225,0.371
		c-0.013,0.014-0.291,0.271-0.291,0.271l-0.04,0.411l-0.033,0.604c0,1.445,0.537,2.626,1.055,3.753
		c0.424,0.955,0.822,1.844,0.822,2.785l-0.047,0.604l-0.086,0.457c0,0,0.212,0.266,0.259,0.332c0,0.026-0.007,0.066-0.007,0.066l0,0
		c0,0.013-0.026,0.424-0.026,0.424c0,0.306,0.112,0.617,0.285,0.902c0.006,0.53,0.146,1.027,0.271,1.472
		c0.106,0.385,0.212,0.736,0.212,1.034l-0.039,0.266l-0.054,0.212l-0.066,0.219l0.226,0.392c1.207,2.201,1.513,4.774,1.645,6.518
		l0.04,0.591l0.518,0.292c0.146,0.079,0.146,0.092,0.146,0.252l-0.046,0.557l-0.087,0.836c0,0.324,0.093,0.596,0.199,0.861
		c-0.007,0-0.033,0-0.033,0c0.392,1.412,0.935,2.679,1.638,3.873c0,0.026,0,0.065,0,0.065c0,0.411,0.152,0.782,0.398,1.128
		c0,0.046,0,0.093,0,0.093c0,0.961,0.212,2.016,0.569,2.824l0.106,0.226l0.186,0.173c0.259,0.212,0.438,0.504,0.544,0.809
		C802.306,202.173,802.113,202.226,801.709,202.239z M803.539,151.593l-0.054-0.026c0.021,0,0.04,0.014,0.066,0.026
		C803.552,151.593,803.552,151.593,803.539,151.593z M901.808,146.354c-1.221,1.671-1.877,3.594-2.387,5.451
		c-0.883,0.662-1.181,1.631-1.347,2.228c-0.231,0.849-0.352,1.107-0.749,1.273l-0.066,0.026l-0.133,0.079l-0.06,0.047
		c-0.471,0.378-0.822,0.855-1.16,1.326c-0.656,0.908-0.889,1.101-1.247,1.027c-0.809-0.397-1.611-0.345-2.367-0.252
		c-0.49,0.08-0.915,0.133-1.26,0l-0.312-0.132l-0.331,0.065c-0.65,0.133-1.102,0.04-1.725-0.105
		c-0.782-0.173-1.645-0.306-2.765-0.08c-0.152-0.013-3.282-0.298-3.282-0.298c-1.181-0.073-2.414-0.14-3.746-0.378
		c-0.054-0.007-0.094-0.014-4.741-0.292c-2.892-0.119-5.597-0.238-8.263-0.782c-2.791-0.61-5.02-0.876-7.426-0.876
		c0,0-0.04,0-0.086,0c-0.021-0.013-0.14-0.158-0.14-0.158l-0.405-0.133h-0.046c-0.882-0.146-1.777-0.054-2.646,0.039
		c-1.227,0.119-2.274,0.239-3.051-0.265l-0.471-0.312l-0.53,0.205c-0.63,0.252-1.181,0.08-1.949-0.146
		c-0.743-0.219-1.657-0.484-2.726-0.306c-0.086,0-0.364-0.079-0.63-0.172c-0.49-0.159-1.286-0.398-2.208-0.04
		c-0.604-0.159-1.187-0.226-1.671-0.252c-0.677-0.026-1.214-0.06-1.651-0.358l-0.438-0.291l-0.49,0.146
		c-0.902,0.252-1.678,0.093-2.666-0.119c0,0-1.485-0.226-1.797-0.266c-0.604-0.49-1.279-0.517-1.598-0.504
		c0,0-0.093,0.007-0.152,0.007c-0.066-0.06-0.352-0.299-0.352-0.299l-0.57,0.16c-0.345,0.105-0.836,0-1.366-0.106
		c-0.497-0.112-1.233-0.199-1.989-0.066c-0.716-0.623-1.645-0.716-2.175-0.743c-0.703-0.053-0.968-0.1-1.087-0.291l-0.306-0.411
		l-0.45-0.04l0,0l-0.855-0.08c-0.511-0.013-0.75-0.026-0.988-0.198l-0.173-0.12l-0.259-0.053c0.007,0-1.014-0.238-1.014-0.238
		c-0.664-0.186-1.578-0.425-2.619-0.332c-0.949-0.557-1.95-0.861-2.898-1.113c-0.861-0.213-1.664-0.425-2.334-0.822l-0.471-0.279
		l-0.504,0.213c-0.338,0.133-0.604,0.026-1.346-0.425c-0.584-0.364-1.658-0.975-2.984-0.63c-1.034-0.511-2.148-0.901-3.275-1.141
		c-0.199-0.258-0.729-0.935-0.729-0.935c-0.478-0.53-0.954-1.074-0.954-1.485l0.013-0.106l0.079-0.378l-0.252-0.457
		c-0.099-0.239-0.231-0.425-0.371-0.57c0-0.093,0.014-0.186,0.014-0.186l0.06-0.756c0-0.491-0.173-0.969-0.444-1.412
		c-0.007-0.22-0.159-7.115-0.159-7.115s-0.345-0.252-0.397-0.292c0.013-0.106,0.079-0.278,0.191-0.583
		c0.18-0.465,0.412-1.041,0.412-1.698c0,0-0.027-0.278-0.047-0.371c0.014-0.106,0.093-3.859,0.093-3.859l-0.007-3.235
		c0-1.257,0.021-2.881,0.133-4.399c0.172-0.272,0.292-0.561,0.292-0.843l-0.199-0.941l0,0c0-0.007-0.053-0.188-0.079-0.275
		c0-0.066-0.014-0.298-0.014-0.298l0.205-1.801c0.12-0.716,0.252-1.458,0.252-2.228c0-0.557-0.112-1.101-0.277-1.635
		c0.543-2.089,0.729-4.393,0.861-6.249l0.213-2.563c0.198-0.938,0.291-2.059,0.384-3.149c0.212-2.437,0.431-4.957,2.036-6.664
		c0.378-0.48,1.027-0.434,2.373-0.162c0.021,0,1.088,0.192,1.088,0.192l0.007-0.014c1.061,0.246,2.068-0.053,2.897-0.318
		l0.007-0.003c1.167-0.368,1.531-0.425,1.896-0.057l0.219,0.226l0.312,0.066c0.994,0.232,1.916,0.04,2.659-0.119
		c0.822-0.166,1.279-0.246,1.664-0.01l0.266,0.163h0.305c2.069,0,4.694,0.689,6.856,1.813l0.053,0.023l0.113,0.04l0.868,0.239
		c0.729,0.219,1.565,0.474,2.705,0.172l0.199-0.053l0.079-0.073l1.074-0.769c0.955-0.796,1.273-0.925,1.685-0.729l0.179,0.079
		l2.354,0.236l2.573,0.255c0.464,0.112,1.073,0.368,1.717,0.643c1.034,0.434,2.096,0.882,3.415,0.985l0.079,0.006l0.159-0.01
		l1.048-0.238c0.742-0.152,1.531-0.309,2.44-0.832c0.504-0.252,1.479-0.252,2.122-0.017c0.424,0.54,1.008,0.762,1.299,0.868
		c0.146,0.047,0.358,0.113,0.398,0.159l0.159,0.183l3.249,1.482l3.972,1.78l0.444-0.232c0.252-0.116,0.696-0.057,1.167,0.017
		c0.749,0.1,1.671,0.195,2.586-0.325v0.017c0.318-0.143,0.663-0.026,1.247,0.196c0.438,0.166,0.935,0.338,1.472,0.358
		c0.1,0.026,0.882,0.278,0.882,0.278c0.617,0.149,0.829,0.206,1.027,0.491l0.285,0.417l0.504,0.046
		c0.697,0.073,1.313,0.395,2.036,0.756c0.026,0.014,1.114,0.498,1.372,0.607c1.479,2.082,4.33,1.604,6.074,1.299
		c0.007,0,0.033-0.003,0.073-0.01c0.119,0.033,0.397,0.103,0.397,0.103l0.106-0.01c0.331-0.046,0.649-0.199,0.954-0.424
		c0.153,0.023,0.313,0.053,0.313,0.053c0.378,0.073,0.822,0.152,1.293,0.146c0.663,0.504,1.313,1.084,1.976,1.701
		c2.096,1.953,4.47,4.167,8.103,3.846c1.168-0.063,2.521,0.484,3.25,1.33l0.477,0.557l0.703-0.232
		c0.133-0.046,0.159-0.056,0.584,0.173c0.357,0.182,0.941,0.49,1.724,0.438c0.524,0.229,1.095,0.345,1.592,0.411
		c0,0,0.569,0.083,0.623,0.093c0.53,0.232,1.087,0.397,1.618,0.53c1.167,0.295,1.83,0.497,2.095,1.187l0.093,0.246l0.192,0.179
		c0.657,0.604,1.393,1.061,2.103,1.512c1.545,0.965,2.652,1.665,2.738,3.313c0.271,1.595,0.404,3.103,0.404,4.568
		c0,2.294-0.324,4.373-0.968,6.174l-0.093,0.262l0.039,0.278c0.014,0.007,0.054,0.593,0.054,0.593c0,0.876-0.306,1.87-0.815,2.666
		c-0.471,1.008-0.598,2.148-0.67,2.904c0,0-0.007,0.08-0.014,0.146c-0.146,0.252-0.756,1.418-0.756,1.418l-0.331,0.69
		c-0.014,0.013-0.77,2.679-0.77,2.679c-0.397,1.604-0.822,3.249-1.519,4.456l-0.152,0.252v0.305c0,0.478-0.305,0.948-0.676,1.499
		C902.358,144.936,901.986,145.585,901.808,146.354z M953.21,142.19l-0.027,0.04l-0.039,0.066l-0.026,0.046
		c-0.253,0.511-0.544,1.181-0.544,1.837l0,0c-0.312,0.438-0.544,0.862-0.677,1.167c-0.371,0.809-0.517,1.035-0.968,1.167
		l-0.199,0.054l-0.172,0.132c-0.491,0.372-0.717,0.902-0.902,1.333c0,0-0.039,0.086-0.093,0.18l-0.292-0.08l-0.45,0.371
		c-0.597,0.504-1.188,0.862-1.817,1.247c-0.809,0.49-1.598,1.008-2.373,1.737c-0.133,0.046-0.77,0.291-0.77,0.291
		c-0.623,0.213-1.564,0.544-2.268,1.26c-1.174,0.504-2.673,0.85-3.992,1.168l-0.504,0.119l0.007,0.013
		c-0.988,0.093-1.837,0.465-2.586,0.829c-0.935,0.451-1.665,0.815-2.52,0.563l-0.187-0.053l-0.191,0.013
		c-1.068,0.073-2.182,0.332-3.25,0.584c-1.372,0.318-2.665,0.623-3.687,0.504c-1.333-0.04-2.479,0.1-3.594,0.232
		c-1.326,0.166-2.572,0.312-3.912,0.159l-0.1-0.007l-0.099-0.014l-0.187,0.04c-1.598,0.371-3.461,0.451-5.265,0.518
		c-1.319,0.039-2.812,0.105-4.178,0.305c-0.093,0-3.295-0.266-3.295-0.266s-0.404-0.039-0.829-0.079
		c0.524-0.756,0.901-1.525,1.062-2.295c1.014-0.868,1.465-2.055,1.83-3.023c0.252-0.703,0.497-1.365,0.875-1.869l0.146-0.199
		l0.054-0.252c0.119-0.584,0.443-1.154,0.795-1.777c0.425-0.742,0.836-1.512,1.021-2.427l0.007,0.007l1.213-3.336
		c0.558-1.458,1.187-3.116,1.618-4.694c0.968-1.167,1.127-2.599,1.233-3.772c0.093-0.988,0.192-1.916,0.663-2.54l0.126-0.179
		l0.378-1.426c0.252-0.955,0.563-2.148,0.742-3.382c0.213-0.338,0.339-0.706,0.339-1.064L915.308,125l0.033-0.162l0.378-0.842
		l-0.417-0.272c0.219-0.292,0.45-0.653,0.45-1.16l-0.04,0.129c0.232-0.597,0.313-1.24,0.372-1.847
		c0.046-0.48,0.099-0.968,0.219-1.203l0.397-0.723c0,0-0.186-0.186-0.245-0.246c0.364-0.073,1.85-0.358,2.228-0.424
		c1.751,1.028,3.396,0.583,4.609,0.219c0.789-0.238,1.531-0.451,2.254-0.365c1.426,0.729,2.904,0.783,4.204,0.809l1.949,0.136h0.14
		c0.231-0.023,0.411,0.097,0.855,0.454c0.483,0.405,1.199,0.992,2.24,0.969c1.135,0.726,2.414,0.901,3.462,1.027
		c1.214,0.146,2.261,0.272,2.971,1.015c1.021,0.789,2.003,1.174,2.944,1.542c0.954,0.365,1.843,0.703,2.559,1.32l0.292,0.242
		l0.372,0.022c0.855,0.043,1.458,0.613,2.201,1.34c0.013,0.007,1.764,1.645,1.764,1.645c0.756,0.623,0.981,0.861,0.981,1.193
		l-0.014,0.146l-0.073,0.504l0.339,0.384c0.45,0.518,0.689,1.154,0.954,1.896c0.239,0.63,0.537,1.3,0.969,1.923
		c-0.014,0.054-0.026,0.106-0.026,0.106c0,0.517,0.205,0.955,0.431,1.366C954.86,138.133,954.529,140.387,953.21,142.19z"/>
</g>
</svg>
